<svg height="434pt" viewBox="-3 0 434 434.74" width="434pt" xmlns="http://www.w3.org/2000/svg"><path d="m427.609375 0v277h-85v-277zm0 0" fill="#00acea"/><path d="m69.96875 88.738281c-18.558594 0-33.597656-14.039062-33.597656-31.359375v-.699218c0-17.289063 14.980468-31.308594 33.5-31.359376 60.578125-.140624 182.25-.050781 272.738281.039063v199.179687h-.140625c-9.507812 23.25-45.140625 44.261719-65.480469 58.082032-3.558593 2.425781-6.875 5.1875-9.910156 8.25-12.535156 12.605468-20.183594 29.253906-21.578125 46.980468l-7.390625 96.886719-17.890625-2.777343c-27.484375-3.496094-48.230469-26.648438-48.699219-54.351563l2.761719-99.769531-140.351562-.148438c-18.539063-.019531-33.558594-14.050781-33.558594-31.363281v-.007813c0-17.320312 15.027344-31.359374 33.589844-31.359374h6.988281c-18.007813-.570313-32.417969-14.382813-32.417969-31.339844v-.730469c0-17.320313 15.039062-31.359375 33.589844-31.359375h10.808594c-18.550782 0-33.589844-14.042969-33.589844-31.359375v-.070313c0-17.320312 15.039062-31.363281 33.589844-31.363281zm0 0" fill="#f7caa5"/></svg>