<svg xmlns="http://www.w3.org/2000/svg" xmlns:xlink="http://www.w3.org/1999/xlink" width="224.94" height="135.15" viewBox="0 0 224.94 135.15">
  <defs>
    <clipPath id="clip-path">
      <rect width="224.94" height="135.15" fill="none"/>
    </clipPath>
    <clipPath id="clip-path-2">
      <rect width="224.94" height="45.847" fill="none"/>
    </clipPath>
  </defs>
  <g id="Repetição_de_grade_13" data-name="Repetição de grade 13" transform="translate(0)" clip-path="url(#clip-path)">
    <g transform="translate(-48 -183.41)">
      <g id="Repetição_de_grade_12" data-name="Repetição de grade 12" transform="translate(48 228)" clip-path="url(#clip-path-2)">
        <g transform="translate(-46 -228)">
          <path id="star" d="M26.285,2.486l5.407,10.956a2.581,2.581,0,0,0,1.944,1.412l12.091,1.757a2.581,2.581,0,0,1,1.431,4.4l-8.749,8.528a2.582,2.582,0,0,0-.742,2.285l2.065,12.042a2.582,2.582,0,0,1-3.746,2.722L25.172,40.906a2.585,2.585,0,0,0-2.4,0L11.955,46.591a2.582,2.582,0,0,1-3.746-2.722l2.065-12.042a2.582,2.582,0,0,0-.742-2.285L.783,21.014a2.581,2.581,0,0,1,1.431-4.4L14.3,14.854a2.581,2.581,0,0,0,1.944-1.412L21.656,2.486A2.581,2.581,0,0,1,26.285,2.486Z" transform="translate(46 226.953)" fill="#fb0"/>
          <path id="star-2" data-name="star" d="M26.285,2.486l5.407,10.956a2.581,2.581,0,0,0,1.944,1.412l12.091,1.757a2.581,2.581,0,0,1,1.431,4.4l-8.749,8.528a2.582,2.582,0,0,0-.742,2.285l2.065,12.042a2.582,2.582,0,0,1-3.746,2.722L25.172,40.906a2.585,2.585,0,0,0-2.4,0L11.955,46.591a2.582,2.582,0,0,1-3.746-2.722l2.065-12.042a2.582,2.582,0,0,0-.742-2.285L.783,21.014a2.581,2.581,0,0,1,1.431-4.4L14.3,14.854a2.581,2.581,0,0,0,1.944-1.412L21.656,2.486A2.581,2.581,0,0,1,26.285,2.486Z" transform="translate(105 226.953)" fill="#fb0"/>
          <path id="star-3" data-name="star" d="M26.285,2.486l5.407,10.956a2.581,2.581,0,0,0,1.944,1.412l12.091,1.757a2.581,2.581,0,0,1,1.431,4.4l-8.749,8.528a2.582,2.582,0,0,0-.742,2.285l2.065,12.042a2.582,2.582,0,0,1-3.746,2.722L25.172,40.906a2.585,2.585,0,0,0-2.4,0L11.955,46.591a2.582,2.582,0,0,1-3.746-2.722l2.065-12.042a2.582,2.582,0,0,0-.742-2.285L.783,21.014a2.581,2.581,0,0,1,1.431-4.4L14.3,14.854a2.581,2.581,0,0,0,1.944-1.412L21.656,2.486A2.581,2.581,0,0,1,26.285,2.486Z" transform="translate(164 226.953)" fill="#fb0"/>
          <path id="star-4" data-name="star" d="M26.285,2.486l5.407,10.956a2.581,2.581,0,0,0,1.944,1.412l12.091,1.757a2.581,2.581,0,0,1,1.431,4.4l-8.749,8.528a2.582,2.582,0,0,0-.742,2.285l2.065,12.042a2.582,2.582,0,0,1-3.746,2.722L25.172,40.906a2.585,2.585,0,0,0-2.4,0L11.955,46.591a2.582,2.582,0,0,1-3.746-2.722l2.065-12.042a2.582,2.582,0,0,0-.742-2.285L.783,21.014a2.581,2.581,0,0,1,1.431-4.4L14.3,14.854a2.581,2.581,0,0,0,1.944-1.412L21.656,2.486A2.581,2.581,0,0,1,26.285,2.486Z" transform="translate(223 226.953)" fill="rgba(0,0,0,0.19)"/>
        </g>
      </g>
      <g id="close" transform="translate(92.408 183.409)">
        <g id="Grupo_32" data-name="Grupo 32" transform="translate(0 0.001)">
          <path id="Caminho_38" data-name="Caminho 38" d="M79.531,67.577l53.148-53.148A8.451,8.451,0,0,0,120.727,2.478L67.579,55.626,14.428,2.478A8.451,8.451,0,0,0,2.477,14.429L55.628,67.577,2.477,120.726a8.45,8.45,0,1,0,11.952,11.949L67.579,79.526l53.148,53.148a8.451,8.451,0,0,0,11.952-11.952Z" transform="translate(0 -0.001)" fill="#e50000"/>
        </g>
      </g>
    </g>
  </g>
</svg>
