<svg xmlns="http://www.w3.org/2000/svg" width="82.671" height="95.898" viewBox="0 0 82.671 95.898">
  <g id="smartphone-text-icon" transform="translate(-4)">
    <path id="Caminho_53" data-name="Caminho 53" d="M51.279,95.9H9.63A5.631,5.631,0,0,1,4,90.268V5.63A5.631,5.631,0,0,1,9.63,0H51.278a5.631,5.631,0,0,1,5.632,5.63V90.266A5.631,5.631,0,0,1,51.279,95.9Z" transform="translate(0)"/>
    <rect id="Retângulo_49" data-name="Retângulo 49" width="52.909" height="66.136" transform="translate(4 9.92)" fill="#e7eced"/>
    <circle id="Elipse_9" data-name="Elipse 9" cx="4.96" cy="4.96" r="4.96" transform="translate(25.494 81.017)" fill="#262b35"/>
    <path id="Caminho_54" data-name="Caminho 54" d="M23.267,5.307H16.653a1.653,1.653,0,1,1,0-3.307h6.614a1.653,1.653,0,1,1,0,3.307Z" transform="translate(7.188 1.307)" fill="#262b35"/>
    <path id="Caminho_55" data-name="Caminho 55" d="M25.307,5.307H23.653a1.653,1.653,0,0,1,0-3.307h1.653a1.653,1.653,0,0,1,0,3.307Z" transform="translate(11.761 1.307)" fill="#262b35"/>
    <path id="Caminho_56" data-name="Caminho 56" d="M77.523,12H18V43.415h6.614v9.92l13.227-9.92H77.523Z" transform="translate(9.148 7.841)" fill="#125ab0"/>
    <g id="Grupo_45" data-name="Grupo 45" transform="translate(35.415 29.761)">
      <path id="Caminho_57" data-name="Caminho 57" d="M24.653,21.307H41.188a1.653,1.653,0,1,0,0-3.307H24.653a1.653,1.653,0,1,0,0,3.307Z" transform="translate(-23 -18)" fill="#4cbeeb"/>
      <path id="Caminho_58" data-name="Caminho 58" d="M64.335,23H24.653a1.653,1.653,0,0,0,0,3.307H64.335a1.653,1.653,0,0,0,0-3.307Z" transform="translate(-23 -14.733)" fill="#4cbeeb"/>
    </g>
  </g>
</svg>
