<svg id="about-icon-3" xmlns="http://www.w3.org/2000/svg" width="108.528" height="63.949" viewBox="0 0 108.528 63.949">
  <defs>
    <style>
      .cls-1 {
        fill: #f0ba7d;
      }

      .cls-2 {
        fill: #fed298;
      }

      .cls-3 {
        fill: #ebebeb;
      }

      .cls-4 {
        fill: #21ac9e;
      }

      .cls-5 {
        fill: #dedede;
      }
    </style>
  </defs>
  <g id="Grupo_9" data-name="Grupo 9" transform="translate(0 0)">
    <path id="Caminho_22" data-name="Caminho 22" class="cls-1" d="M108.974,299.761a.834.834,0,0,1-.088-.113c-.014-.02-.032-.036-.045-.058h0l-.048-.082-2.445-4.13-.007,0a.838.838,0,0,1-.151.1l-.025.012a.855.855,0,0,1-.169.057l-.026,0a.842.842,0,0,1-.157.016l-.023,0h-.023a.832.832,0,0,1-.183-.03l-.008,0-5.589,3.216a3.117,3.117,0,0,0,1.594,5.823,3.094,3.094,0,0,0,1.534-.4l4.652-2.685a.843.843,0,0,1,.864,1.448,3.12,3.12,0,0,0,1.646,5.789,3.094,3.094,0,0,0,1.539-.41l3.9-2.263a.843.843,0,0,1,.866,1.447,3.126,3.126,0,0,0,1.642,5.793,3.118,3.118,0,0,0,1.551-.414l5-2.888a.844.844,0,0,1,.865,1.448,3.128,3.128,0,0,0,3.2,5.377l4.8-2.78-24.483-14.141A.882.882,0,0,1,108.974,299.761Z" transform="translate(-84.681 -253.28)"/>
    <path id="Caminho_23" data-name="Caminho 23" class="cls-2" d="M163.69,198.189c-5.388.016-10.927-.442-14.83-4.133-.134-.126-.26-.255-.381-.384l-.09-.1q-.142-.158-.271-.319c-.023-.029-.049-.059-.072-.088-.092-.12-.177-.241-.258-.362-.04-.06-.077-.121-.115-.182s-.078-.131-.115-.2c-.026-.047-.058-.094-.082-.141l-2.451,4.25-4.5,7.793-7.408,12.838,2.831,4.79,25.137,14.518h0q.106.061.215.115c.031.014.063.029.094.04a.817.817,0,0,1,.134.063,3.632,3.632,0,0,0,1.379.273,3.674,3.674,0,0,0,1.933-6.808.843.843,0,0,1,.862-1.449L171.39,232a3.683,3.683,0,0,0,3.753-6.337.843.843,0,0,1,.866-1.447l4.454,2.577a3.648,3.648,0,0,0,1.816.483,3.679,3.679,0,0,0,1.927-6.821.843.843,0,0,1,.868-1.446l5.29,3.074a3.681,3.681,0,0,0,1.813.475,3.722,3.722,0,0,0,3.217-1.826,3.68,3.68,0,0,0,.109-3.448Z" transform="translate(-110.448 -176.691)"/>
    <path id="Caminho_25" data-name="Caminho 25" class="cls-3" d="M90.493,180.42a.851.851,0,0,1,.054-.115l2.982-5.152,4.7-8.148,7.93-13.741c0-.011.005-.022.007-.033.005-.029.013-.057.019-.085.015-.069.03-.137.049-.2.013-.048.03-.1.046-.143s.03-.092.047-.137c.006-.017.011-.034.017-.051a3.784,3.784,0,0,1,1.028-1.435l.489-.851-12.3-7.09-1.057,1.831a.847.847,0,0,1-.1.31L79.3,171.543a.837.837,0,0,1-.212.242l-.968,1.677,12.295,7.089Zm-2.968-6.129a3.381,3.381,0,0,1-1.683-.45,3.385,3.385,0,0,1,1.688-6.314,3.4,3.4,0,0,1,1.693.454,3.394,3.394,0,0,1,1.239,4.63A3.426,3.426,0,0,1,87.525,174.29Z" transform="translate(-69.593 -140.255)"/>
    <path id="Caminho_26" data-name="Caminho 26" class="cls-4" d="M386.518,137.008,377.85,142l12.63,21.89,1.635,2.834,8.669-5.008Z" transform="translate(-292.256 -135.629)"/>
    <path id="Caminho_27" data-name="Caminho 27" class="cls-1" d="M193.569,172.423c0,.008,0,.015,0,.023a2.02,2.02,0,0,0,.029.74c.005.024.012.049.018.073s.017.068.027.1.022.071.034.107.015.043.023.065c.016.044.033.089.052.133l.012.028a4.058,4.058,0,0,0,.512.855l.006.008c.04.052.083.1.127.157l.029.034c.04.047.08.093.123.14l.056.06c.037.039.073.078.111.117.059.06.119.119.183.178,3.415,3.229,8.576,3.674,13.645,3.674h.261c.017,0,.034,0,.051,0s.038,0,.057,0,.047.009.07.014l.039.008c.022.006.043.014.064.021l.043.015c.018.007.035.017.052.026s.03.013.044.021l.064.037L238.674,196.7l-.757-1.312-13.824-23.923-1.407.417a.843.843,0,0,1-.806-.184c-2.324-2.106-4.356-3.087-6.4-3.087a11.379,11.379,0,0,0-4.369,1.157,11.715,11.715,0,0,1-4.446,1.173,6.276,6.276,0,0,1-1.363-.149,28.683,28.683,0,0,0-6.107-.77,8.12,8.12,0,0,0-4.839,1.169.764.764,0,0,1-.056.055,2.193,2.193,0,0,0-.565.679c-.019.037-.037.073-.053.11s-.026.061-.037.092-.019.055-.028.083-.015.048-.021.072C193.587,172.33,193.577,172.377,193.569,172.423Z" transform="translate(-155.338 -159.108)"/>
    <path id="Caminho_28" data-name="Caminho 28" class="cls-5" d="M346.31,176.434l-1.764-3.058-14.67-25.415-12.286,7.1.09.152,4.081,7.073,8.2,14.2,5.081,8.793,12.286-7.088-1.009-1.749Zm-5.342,1.35a3.383,3.383,0,1,1-.006-4.781A3.387,3.387,0,0,1,340.968,177.783Z" transform="translate(-247.49 -143.766)"/>
    <path id="Caminho_29" data-name="Caminho 29" class="cls-4" d="M67.83,136.62l-8.614-4.976L44.952,156.35l8.615,4.977Z" transform="translate(-44.952 -131.644)"/>
  </g>
</svg>
