<svg height="512" viewBox="0 0 128 128" width="512" xmlns="http://www.w3.org/2000/svg"><g id="Layer_2" data-name="Layer 2"><path d="m106.641 18a1.75 1.75 0 0 0 -2.475 2.475l3.359 3.359a1.75 1.75 0 0 0 2.475-2.475z"/><path d="m111.107 12.626a1.75 1.75 0 0 0 0 2.475l1.792 1.791a1.75 1.75 0 1 0 2.475-2.475l-1.792-1.791a1.75 1.75 0 0 0 -2.475 0z"/><path d="m30 84.864a1.75 1.75 0 1 0 -2.475 2.475l14.033 14.033a1.75 1.75 0 1 0 2.473-2.472z"/><path d="m127.488 12.311-11.8-11.8a1.741 1.741 0 0 0 -2.36-.1l-6.5 5.45-1.87-1.861a1.75 1.75 0 0 0 -2.47 2.48l1.64 1.64-4.01 3.36-2.47-2.48a1.754 1.754 0 0 0 -2.48 2.48l2.26 2.26-6.27 5.26a1.758 1.758 0 0 0 -.11 2.57l2.52 2.53-18.26 18.25a34.612 34.612 0 0 0 -34.94-1.35 1.748 1.748 0 0 0 -.55 2.61 14.124 14.124 0 0 1 -21.15 18.64c-.13-.13-.26-.27-.38-.4a3.713 3.713 0 0 0 -5-.41 34.413 34.413 0 0 0 -4.67 49.94l-3.56 4.23a1.752 1.752 0 0 0 .1 2.36l4.87 4.87a1.774 1.774 0 0 0 2.36.1l4.23-3.56a34.456 34.456 0 0 0 22.782 8.62c.81 0 1.61-.03 2.42-.09a34.443 34.443 0 0 0 24.74-13.2 3.7 3.7 0 0 0 -.41-5c-.13-.12-.27-.25-.4-.38a14.124 14.124 0 0 1 18.64-21.15 1.77 1.77 0 0 0 2.61-.55 34.615 34.615 0 0 0 -1.36-34.94l18.26-18.26 2.53 2.52a1.759 1.759 0 0 0 2.57-.11l5.26-6.27 2.26 2.26a1.781 1.781 0 0 0 2.48 0 1.762 1.762 0 0 0 0-2.48l-2.48-2.48 3.36-4 1.64 1.64a1.75 1.75 0 1 0 2.48-2.47l-1.86-1.87 5.45-6.5a1.752 1.752 0 0 0 -.102-2.359zm-49.58 32.4 5.38 5.38-3.8 3.8-5.38-5.38zm-16.34 16.34 3.8-3.8 5.38 5.38-3.8 3.8zm2.91 7.85-17.16 17.16-5.38-5.38 14.87-14.87.02-.02 2.27-2.27zm3.36-14.12 3.8-3.8 5.38 5.38-3.8 3.8zm-56.47 64.45-2.6-2.6 15.332-18.21 5.48 5.48zm73.42-35.01a17.629 17.629 0 0 0 -21.52 27.59l.53.5a.2.2 0 0 1 0 .25 30.916 30.916 0 0 1 -44.47 4.54l13.96-11.75a1.737 1.737 0 0 0 .11-2.58l-8.17-8.17a1.771 1.771 0 0 0 -1.31-.52 1.8 1.8 0 0 0 -1.27.63l-11.748 13.96a30.916 30.916 0 0 1 4.54-44.47.21.21 0 0 1 .26 0c.16.18.32.35.49.53a17.627 17.627 0 0 0 27.59-21.52 31.105 31.105 0 0 1 29.01 1.67l-34.56 34.56a1.748 1.748 0 0 0 -.52 1.24 1.766 1.766 0 0 0 .52 1.24l7.85 7.85a1.738 1.738 0 0 0 2.48 0l34.56-34.56a31.081 31.081 0 0 1 1.668 29.01zm.97-36.6-5.38-5.38 3.8-3.8 5.38 5.38zm6.27-6.27-5.38-5.38 3.8-3.8 5.38 5.38zm6.27-6.27-5.38-5.38 3.13-3.13 5.38 5.38zm9.25-1.96-2.41-2.4-7.86-7.86-2.41-2.41 19.48-16.33 9.53 9.53z"/></g></svg>