<svg id="Layer_1" height="512" viewBox="0 0 128 128" width="512" xmlns="http://www.w3.org/2000/svg" data-name="Layer 1"><path d="m84.558 91.767a14.378 14.378 0 1 0 -14.378-14.378 14.394 14.394 0 0 0 14.378 14.378zm0-25.256a10.878 10.878 0 1 1 -10.878 10.878 10.89 10.89 0 0 1 10.878-10.878z"/><path d="m47.957 97.966a11.02 11.02 0 1 0 11.02-11.02 11.032 11.032 0 0 0 -11.02 11.02zm11.02-7.52a7.52 7.52 0 1 1 -7.52 7.52 7.529 7.529 0 0 1 7.52-7.52z"/><path d="m35.786 65.225a8.568 8.568 0 1 0 -8.567-8.568 8.578 8.578 0 0 0 8.567 8.568zm0-13.635a5.068 5.068 0 1 1 -5.067 5.067 5.073 5.073 0 0 1 5.067-5.068z"/><path d="m50.729 47.584a7.161 7.161 0 1 0 -7.161-7.161 7.169 7.169 0 0 0 7.161 7.161zm0-10.822a3.661 3.661 0 1 1 -3.661 3.661 3.664 3.664 0 0 1 3.661-3.66z"/><path d="m110.5 10.664a4.816 4.816 0 0 0 -6.671-.147l-32.575 29.829a13.158 13.158 0 0 1 -1.507-8.224 8.88 8.88 0 0 0 -1.085-6.286 9.158 9.158 0 0 0 -8.824-4.488 48.805 48.805 0 0 0 1.579 97.225q2.372.179 4.619.177c26.67 0 40.782-18.276 42.646-36.169a36.189 36.189 0 0 0 -5.515-23.927 29.935 29.935 0 0 0 -18.775-12.645l26.257-28.675a4.816 4.816 0 0 0 -.149-6.67zm-50.3 14.166a5.645 5.645 0 0 1 5.439 2.77 5.389 5.389 0 0 1 .683 3.807 16.557 16.557 0 0 0 2.307 11.343l-23.37 21.4a8.25 8.25 0 0 0 -2.7 5.954c0 .177.008.352.015.527a11.08 11.08 0 0 0 -10.64 1.684 19.286 19.286 0 0 0 -6.934 18.949 44.427 44.427 0 0 1 -5.3-18.155 45.147 45.147 0 0 1 40.5-48.279zm-14.722 63.082c-2.8 2.8-6.1 2.184-8.283 1.776-.256-.048-.489-.092-.7-.125a10.462 10.462 0 0 0 -7.928 1.615 15.761 15.761 0 0 1 5.426-16.033 8.345 8.345 0 0 1 4.857-1.7c1.943 0 4.213.8 6.626 3.208a7.97 7.97 0 0 1 .002 11.259zm1.991-14.212a4.821 4.821 0 0 1 .153-6.965l1.358-1.244 6.7 6.7-1.244 1.358a4.822 4.822 0 0 1 -6.965.153zm10.574-4.1-6.479-6.479 4.055-3.713 6.138 6.138zm47.157 12.618c-2.568 24.639-24.375 34.306-43.521 32.865a45.739 45.739 0 0 1 -33.742-19.1 1.745 1.745 0 0 0 1.427-.8c.02-.029 1.939-2.919 6.57-2.167.184.03.389.068.614.11 2.366.444 7.293 1.367 11.4-2.741a11.463 11.463 0 0 0 2.737-11.785c.062 0 .123.009.186.009h.19a8.25 8.25 0 0 0 5.954-2.7l24.6-26.862c18.262 2.916 25.051 19.123 23.585 33.171zm2.865-67.248-28.409 31.03-.017.018-15.517 16.945-5.92-5.92 13.891-12.72c.009-.007.018-.011.027-.019s.026-.03.041-.043l34.033-31.161a1.326 1.326 0 0 1 1.873 1.873z"/></svg>