<svg id="Layer_1" height="512" viewBox="0 0 128 128" width="512" xmlns="http://www.w3.org/2000/svg" data-name="Layer 1"><path d="m127.49 22.04-21.53-21.53a1.808 1.808 0 0 0 -2.47 0l-9.07 9.07a1.775 1.775 0 0 0 -.49 1.51l1.85 11.67-60.07 60.07-13.69-13.69a5.957 5.957 0 0 0 -8.43 0l-4.01 4.01a1.716 1.716 0 0 0 -.51 1.23 1.739 1.739 0 0 0 .51 1.24l.46.46-9.53 9.52a1.762 1.762 0 0 0 0 2.48 1.762 1.762 0 0 0 2.48 0l9.52-9.53 3.16 3.16-9.53 9.52a1.754 1.754 0 0 0 2.48 2.48l9.52-9.53 3.16 3.16-9.53 9.52a1.754 1.754 0 0 0 2.48 2.48l9.52-9.53 3.16 3.16-9.53 9.52a1.754 1.754 0 0 0 2.48 2.48l9.52-9.53 3.16 3.16-9.53 9.52a1.754 1.754 0 0 0 2.48 2.48l9.52-9.53 3.16 3.16-9.53 9.52a1.754 1.754 0 0 0 2.48 2.48l9.52-9.53 3.16 3.16-9.53 9.52a1.754 1.754 0 0 0 2.48 2.48l9.52-9.53 3.16 3.16-9.53 9.52a1.754 1.754 0 0 0 2.48 2.48l9.52-9.53.46.46a1.75 1.75 0 0 0 2.47 0l4.01-4.01a5.951 5.951 0 0 0 0-8.43l-13.69-13.69 60.07-60.07 11.67 1.85a1.785 1.785 0 0 0 1.51-.49l9.07-9.07a1.75 1.75 0 0 0 0-2.47zm-71.11 86.41a2.463 2.463 0 0 1 .01 3.49l-2.77 2.77-40.33-40.33 2.77-2.76a2.465 2.465 0 0 1 3.49 0zm-13.68-18.63-4.51-4.52 59.45-59.46 4.51 4.52zm73.88-59.35-11.12-1.75-6.18-6.18-1.75-11.12 7.19-7.2 19.05 19.06z"/><path d="m103.487 9.576-2.224 2.224a1.748 1.748 0 0 0 -.491 1.51l1.148 7.275a1.747 1.747 0 0 0 .491.965l4.039 4.038a1.749 1.749 0 0 0 .964.491l7.275 1.148a1.769 1.769 0 0 0 1.51-.491l2.224-2.224a1.749 1.749 0 0 0 0-2.475l-12.462-12.461a1.749 1.749 0 0 0 -2.474 0zm11.225 13.7-.356.356-5.833-.921-3.234-3.233-.92-5.833.356-.356z"/></svg>