<svg xmlns="http://www.w3.org/2000/svg" width="21.094" height="20.537" viewBox="0 0 21.094 20.537">
  <defs>
    <style>
      .cls-1 {
        opacity: 0.7;
      }

      .cls-2 {
        fill: #fff;
      }
    </style>
  </defs>
  <g id="magnifying-glass" class="cls-1" transform="translate(-0.05)">
    <path id="Caminho_3" data-name="Caminho 3" class="cls-2" d="M20.961,19.49,15.834,14.5a8.588,8.588,0,0,0,2.208-5.742A8.888,8.888,0,0,0,9.046,0a8.888,8.888,0,0,0-9,8.757,8.891,8.891,0,0,0,9,8.757,9.1,9.1,0,0,0,5.9-2.149l5.127,4.991a.644.644,0,0,0,.444.182.625.625,0,0,0,.444-.182A.6.6,0,0,0,20.961,19.49ZM1.308,8.757A7.641,7.641,0,0,1,9.041,1.23a7.641,7.641,0,0,1,7.733,7.527,7.644,7.644,0,0,1-7.733,7.532A7.645,7.645,0,0,1,1.308,8.757Z" transform="translate(0)"/>
  </g>
</svg>
