<svg id="Layer_1" height="512" viewBox="0 0 128 128" width="512" xmlns="http://www.w3.org/2000/svg" data-name="Layer 1"><path d="m51.266 14.551h-36.952a7.221 7.221 0 0 0 -7.214 7.213v65.55a7.221 7.221 0 0 0 7.213 7.212h10.813v5.222h-2.833a10.134 10.134 0 0 0 -10.123 10.123v1.829a1.75 1.75 0 0 0 1.75 1.75h37.739a1.75 1.75 0 0 0 1.75-1.75v-1.828a10.134 10.134 0 0 0 -10.122-10.124h-2.833v-5.222h10.812a7.22 7.22 0 0 0 7.212-7.212v-65.55a7.22 7.22 0 0 0 -7.212-7.213zm-1.357 95.319v.078h-34.239v-.078a6.63 6.63 0 0 1 6.623-6.623h20.994a6.63 6.63 0 0 1 6.622 6.624zm-12.955-10.122h-8.328v-5.222h8.327zm18.025-12.434a3.717 3.717 0 0 1 -3.712 3.712h-36.953a3.717 3.717 0 0 1 -3.714-3.712v-65.55a3.717 3.717 0 0 1 3.713-3.712h36.953a3.717 3.717 0 0 1 3.712 3.712z"/><path d="m14.585 27.611a1.75 1.75 0 0 0 1.75-1.75v-3.788a1.75 1.75 0 1 0 -3.5 0v3.788a1.75 1.75 0 0 0 1.75 1.75z"/><path d="m51 20.323a1.75 1.75 0 0 0 -1.75 1.75v3.788a1.75 1.75 0 0 0 3.5 0v-3.788a1.75 1.75 0 0 0 -1.75-1.75z"/><path d="m14.585 81.467a1.75 1.75 0 0 0 -1.75 1.75v3.783a1.75 1.75 0 1 0 3.5 0v-3.783a1.75 1.75 0 0 0 -1.75-1.75z"/><path d="m51 81.467a1.75 1.75 0 0 0 -1.75 1.75v3.783a1.75 1.75 0 0 0 3.5 0v-3.783a1.75 1.75 0 0 0 -1.75-1.75z"/><path d="m32.79 45.95a8.934 8.934 0 1 0 -8.934-8.934 8.944 8.944 0 0 0 8.934 8.934zm0-14.368a5.434 5.434 0 1 1 -5.434 5.434 5.44 5.44 0 0 1 5.434-5.433z"/><path d="m32.79 50.7a17.134 17.134 0 1 0 17.133 17.133 17.153 17.153 0 0 0 -17.133-17.133zm0 30.768a13.634 13.634 0 1 1 13.633-13.635 13.649 13.649 0 0 1 -13.633 13.634z"/><path d="m32.79 58.9a8.934 8.934 0 1 0 8.934 8.934 8.944 8.944 0 0 0 -8.934-8.934zm0 14.368a5.434 5.434 0 1 1 5.434-5.434 5.44 5.44 0 0 1 -5.434 5.433z"/><path d="m113.686 14.551h-36.952a7.22 7.22 0 0 0 -7.212 7.212v65.55a7.22 7.22 0 0 0 7.212 7.212h10.812v5.222h-2.833a10.134 10.134 0 0 0 -10.123 10.123v1.83a1.75 1.75 0 0 0 1.75 1.75h37.74a1.75 1.75 0 0 0 1.75-1.75v-1.828a10.134 10.134 0 0 0 -10.123-10.123h-2.833v-5.223h10.813a7.221 7.221 0 0 0 7.213-7.212v-65.55a7.221 7.221 0 0 0 -7.214-7.213zm-1.356 95.319v.078h-34.239v-.078a6.63 6.63 0 0 1 6.623-6.623h20.994a6.63 6.63 0 0 1 6.622 6.624zm-12.956-10.122h-8.328v-5.222h8.327zm18.026-12.434a3.717 3.717 0 0 1 -3.713 3.712h-36.953a3.717 3.717 0 0 1 -3.712-3.712v-65.55a3.717 3.717 0 0 1 3.712-3.712h36.952a3.717 3.717 0 0 1 3.713 3.712z"/><path d="m77 27.611a1.75 1.75 0 0 0 1.75-1.75v-3.788a1.75 1.75 0 0 0 -3.5 0v3.788a1.75 1.75 0 0 0 1.75 1.75z"/><path d="m113.415 20.323a1.75 1.75 0 0 0 -1.75 1.75v3.788a1.75 1.75 0 1 0 3.5 0v-3.788a1.75 1.75 0 0 0 -1.75-1.75z"/><path d="m77 81.467a1.75 1.75 0 0 0 -1.75 1.75v3.783a1.75 1.75 0 0 0 3.5 0v-3.783a1.75 1.75 0 0 0 -1.75-1.75z"/><path d="m113.415 81.467a1.75 1.75 0 0 0 -1.75 1.75v3.783a1.75 1.75 0 1 0 3.5 0v-3.783a1.75 1.75 0 0 0 -1.75-1.75z"/><path d="m95.21 45.95a8.934 8.934 0 1 0 -8.934-8.934 8.944 8.944 0 0 0 8.934 8.934zm0-14.368a5.434 5.434 0 1 1 -5.434 5.434 5.44 5.44 0 0 1 5.434-5.433z"/><path d="m95.21 50.7a17.134 17.134 0 1 0 17.134 17.134 17.153 17.153 0 0 0 -17.134-17.134zm0 30.768a13.634 13.634 0 1 1 13.634-13.634 13.649 13.649 0 0 1 -13.634 13.633z"/><path d="m95.21 58.9a8.934 8.934 0 1 0 8.934 8.934 8.944 8.944 0 0 0 -8.934-8.934zm0 14.368a5.434 5.434 0 1 1 5.434-5.434 5.44 5.44 0 0 1 -5.434 5.433z"/></svg>