<?xml version="1.0" encoding="iso-8859-1"?>
<!-- Generator: Adobe Illustrator 19.0.0, SVG Export Plug-In . SVG Version: 6.00 Build 0)  -->
<svg version="1.1" id="Capa_1" xmlns="http://www.w3.org/2000/svg" xmlns:xlink="http://www.w3.org/1999/xlink" x="0px" y="0px"
	 viewBox="0 0 374.4 374.4" style="enable-background:new 0 0 374.4 374.4;" xml:space="preserve">
<g>
	<g>
		<g>
			<path d="M132.6,45.2C132.6,20,112.2,0,87.4,0C62.2,0,42.2,20.4,42.2,45.2v243.2c0,22.8,16.8,41.6,38.8,44.8V368
				c0,3.6,2.8,6.4,6.4,6.4s6.4-2.8,6.4-6.4v-34.8c22-3.2,38.8-22,38.8-44.8V64.8h14.8v106h13.2V51.6h-28V45.2z M119.4,288.4
				c0,18-14.4,32.4-32.4,32.4s-32.4-14.4-32.4-32.4V64.8h64.8V288.4z M119.8,52H55v-6.4c0-18,14.4-32.4,32.4-32.4
				s32.4,14.4,32.4,32.4V52z"/>
			<path d="M320.2,11.2C312.6,4,302.2,0,291.4,0c-11.2,0-21.6,4.4-29.2,12c-7.2,7.2-11.6,17.2-11.6,27.2v250.4c0,2.4,0.8,4.8,2,6.8
				l28.8,42.4c0.8,1.2,2,2.4,3.2,3.2v24c0,3.6,2.8,6.4,6.4,6.4c3.6,0,6.4-2.8,6.4-6.4v-24c0.8-0.4,1.2-0.8,2-1.6
				c0.4-0.4,0.8-1.2,1.2-1.6l28.8-42.4c1.2-2,2-4.4,2-6.8l0.8-250.4C332.2,28.4,327.8,18.8,320.2,11.2z M285,65.2V320l-21.2-30.8
				V64.8H285V65.2z M319,289.2l-21.2,31.2V65.2v-0.4H319V289.2z M319,51.6h-55.2V39.2c0-6.8,2.4-13.2,7.6-18c5.2-5.2,12.4-8,20-8
				c7.6,0,14.4,2.8,19.6,7.6c5.2,4.8,8,11.6,8,18.4V51.6z"/>
		</g>
	</g>
</g>
<g>
</g>
<g>
</g>
<g>
</g>
<g>
</g>
<g>
</g>
<g>
</g>
<g>
</g>
<g>
</g>
<g>
</g>
<g>
</g>
<g>
</g>
<g>
</g>
<g>
</g>
<g>
</g>
<g>
</g>
</svg>
