<svg id="Layer_1" height="512" viewBox="0 0 128 128" width="512" xmlns="http://www.w3.org/2000/svg" data-name="Layer 1"><path d="m107.348 115.25h-19.113a43.345 43.345 0 0 0 18.177-28.581 1.723 1.723 0 0 0 .075-.413 42.408 42.408 0 0 0 .514-6.5 42.838 42.838 0 0 0 -19.874-36.251 15.291 15.291 0 0 0 -6.233-2.261v-7.095a1.75 1.75 0 0 0 -1.75-1.75h-3.555v-21.399a1.75 1.75 0 0 0 -1.75-1.75h-19.677a1.75 1.75 0 0 0 -1.75 1.75v21.4h-3.555a1.75 1.75 0 0 0 -1.75 1.75v7.095a15.3 15.3 0 0 0 -6.234 2.261 42.974 42.974 0 0 0 -1.108 71.745h-19.113a1.75 1.75 0 0 0 0 3.5h86.7a1.75 1.75 0 0 0 0-3.5zm-22.105-68.8a39.354 39.354 0 0 1 18.26 33.3c0 1.211-.076 2.41-.187 3.6-10.8-5.527-23.962-6.3-37.565-5.385v-33.365h13.04a11.945 11.945 0 0 1 6.451 1.855zm-29.33-33.7h16.176v19.65h-16.177zm-5.306 23.15h26.787v5.2h-26.787zm-7.85 10.555a11.948 11.948 0 0 1 6.453-1.855h13.04v33.639c-4.533.389-9.1.933-13.617 1.519-9.761 1.262-17.533-1.723-23.122-8.853a39.352 39.352 0 0 1 17.247-24.45zm38.556 68.8h-34.626a39.343 39.343 0 0 1 -21.932-39.89c4.8 4.972 12.491 9.4 24.327 7.864 4.376-.567 8.79-1.094 13.168-1.476v16.188a1.75 1.75 0 0 0 3.5 0v-16.464c13.62-.93 26.7-.157 37.041 5.561a39.745 39.745 0 0 1 -21.478 28.212z"/><circle cx="64" cy="19.236" r="4.351"/><path d="m33.769 63.137a1.751 1.751 0 0 0 2.41-.565 33.072 33.072 0 0 1 10.229-10.367 1.75 1.75 0 1 0 -1.885-2.949 36.6 36.6 0 0 0 -11.323 11.472 1.75 1.75 0 0 0 .569 2.409z"/></svg>