<?xml version="1.0"?>
<svg xmlns="http://www.w3.org/2000/svg" id="Layer_2" data-name="Layer 2" viewBox="0 0 128 128" width="512" height="512"><title>WHEELBARROW</title><path d="M125.365,43.954a5.711,5.711,0,0,0-5.484-.4L92.157,56.191l7.082-13.3H101.5a3.754,3.754,0,0,0,3.75-3.75V36.805a3.754,3.754,0,0,0-3.75-3.75H89.125V22.409a1.75,1.75,0,0,0-.942-1.552l-6.747-3.512-2.975-4.238a1.751,1.751,0,0,0-1.433-.745H67.462a1.751,1.751,0,0,0-1.278.555L62.3,17.067,51.222,20.5l-9.273-5.909a1.745,1.745,0,0,0-1.267-.244l-7.711,1.464a1.747,1.747,0,0,0-1.119.733l-5.381,7.884-9.1,2.75a1.75,1.75,0,0,0-1.244,1.675v4.2H3.75A3.754,3.754,0,0,0,0,36.805v2.333a3.754,3.754,0,0,0,3.75,3.75H5.382A25.914,25.914,0,0,0,23.395,65.913L51.251,74.83,35.917,81.818a20.255,20.255,0,0,0-15.459-7.1A20.533,20.533,0,1,0,40.7,92.272l12.786-5.829,10.092,18.548a4.746,4.746,0,0,0,4.173,2.481H81.5a4.716,4.716,0,0,0,4.635-3.712l8.18-35.931L124.641,54a5.74,5.74,0,0,0,.725-10.05ZM63.782,20.273a1.75,1.75,0,0,0,.761-.477l3.679-3.935h7.9l2.7,3.843a1.746,1.746,0,0,0,.625.547l6.184,3.219v9.584H63l-2.456-8.127A1.749,1.749,0,0,0,59.5,23.8l-3.18-1.217ZM19.625,30.15l8.45-2.553a1.752,1.752,0,0,0,.939-.689l5.32-7.8,6.318-1.2,9.372,5.972a1.758,1.758,0,0,0,.314.159l7.105,2.719,1.9,6.293H19.625ZM3.5,39.139V36.805a.25.25,0,0,1,.25-.25H101.5a.25.25,0,0,1,.25.25v2.333a.25.25,0,0,1-.25.25H3.75A.25.25,0,0,1,3.5,39.139Zm5.379,3.75H95.273L86.922,58.576l-30.935,14.1L24.461,62.58A22.435,22.435,0,0,1,8.879,42.889Zm13.934,57.538.009,0,6.616-3.016a9.253,9.253,0,1,1-4.771-10.462L18.1,89.935a5.709,5.709,0,0,0-2.514,2.183,5.816,5.816,0,0,0-.506,1.017,5.749,5.749,0,0,0,7.729,7.292Zm-2.354,11.712a16.958,16.958,0,0,1,0-33.917A16.774,16.774,0,0,1,32.575,83.34l-4.152,1.892A12.753,12.753,0,1,0,33.182,95.7l4.177-1.9q.059.7.059,1.385A16.978,16.978,0,0,1,20.458,112.139Zm102.731-61.32L92.075,65a1.749,1.749,0,0,0-.98,1.2L82.72,102.993a1.241,1.241,0,0,1-1.22.979H67.75a1.247,1.247,0,0,1-1.1-.653L55.917,83.589c-.019-.047-.048-.119-.06-.144a1.748,1.748,0,0,0-2.32-.873L21.379,97.233a2.286,2.286,0,0,1-2.35-.341,2.167,2.167,0,0,1-.623-.791,2.27,2.27,0,0,1-.142-.421,2.253,2.253,0,0,1,1.282-2.557L121.332,46.743a2.24,2.24,0,0,1,3.168,2.039A2.245,2.245,0,0,1,123.189,50.819Z"/><path d="M85.208,68.135,58.99,80.087a1.749,1.749,0,0,0-.812,2.429L68,100.559a1.751,1.751,0,0,0,1.537.914h9.559a1.75,1.75,0,0,0,1.706-1.361l6.842-30a1.75,1.75,0,0,0-2.432-1.981ZM77.7,97.972H70.573L62.15,82.493l21.29-9.706Z"/></svg>
